<svg id="Layer_1" data-name="Layer 1" xmlns="http://www.w3.org/2000/svg" viewBox="0 0 100 100"><defs><style>.cls-1{fill:none;}.cls-2{fill:#fff;}</style></defs><title>Vertical (White)</title><path class="cls-1" d="M18.44,81.87a5.11,5.11,0,0,0-.76.1,2.23,2.23,0,0,0-.65.23,1.27,1.27,0,0,0-.42.41,1.22,1.22,0,0,0-.15.63,1.32,1.32,0,0,0,.36,1,1.4,1.4,0,0,0,1,.34,2.17,2.17,0,0,0,1.43-.6,1.66,1.66,0,0,0,.69-1.22v-.92h-.61C19,81.84,18.69,81.85,18.44,81.87Z"/><path class="cls-1" d="M33.79,57a1,1,0,0,0-.2-1.34,1,1,0,0,0-.57-.19h-.14a1,1,0,0,0-.63.38,1,1,0,0,0-.18.71,1,1,0,0,0,.38.63A1,1,0,0,0,33.79,57Z"/><path class="cls-1" d="M51.64,78.29a2,2,0,0,0-1.42.56,1.76,1.76,0,0,0-.6,1.36v.63h3.25a1.13,1.13,0,0,0,.62-.12.52.52,0,0,0,.15-.44,1.92,1.92,0,0,0-.58-1.39A1.89,1.89,0,0,0,51.64,78.29Z"/><path class="cls-1" d="M43,79.24H40.6v5H43q2.25,0,2.25-2.4v-.3a2.36,2.36,0,0,0-.58-1.76A2.33,2.33,0,0,0,43,79.24Z"/><path class="cls-1" d="M41.09,12.23H41a1,1,0,0,0-.63.38,1,1,0,0,0,.91,1.52,1,1,0,0,0,.43-1.72A1,1,0,0,0,41.09,12.23Z"/><path class="cls-1" d="M47.65,26.59a1,1,0,0,0-.12-1.35,1,1,0,0,0-.61-.22h-.08a.91.91,0,0,0-.65.34,1,1,0,1,0,1.46,1.23Z"/><path class="cls-1" d="M33.9,18.61a1,1,0,0,0-.2-1.34.93.93,0,0,0-.57-.19,1,1,0,0,0-.77.39,1,1,0,1,0,1.54,1.14Z"/><path class="cls-1" d="M59.56,81.87a5.11,5.11,0,0,0-.76.1,2.23,2.23,0,0,0-.65.23,1.27,1.27,0,0,0-.42.41,1.22,1.22,0,0,0-.15.63,1.32,1.32,0,0,0,.36,1,1.4,1.4,0,0,0,1,.34,2.17,2.17,0,0,0,1.43-.6,1.66,1.66,0,0,0,.69-1.22v-.92h-.61C60.1,81.84,59.81,81.85,59.56,81.87Z"/><path class="cls-1" d="M44.39,77.52A2.09,2.09,0,0,0,44.9,76c0-1.26-.72-1.88-2.16-1.88H40.6V78h2.19A2.22,2.22,0,0,0,44.39,77.52Z"/><path class="cls-1" d="M85.16,78.49a1.85,1.85,0,0,0-1.41.62,2,2,0,0,0-.59,1.42v1.78a2.05,2.05,0,0,0,.6,1.45,1.84,1.84,0,0,0,1.4.62,1.89,1.89,0,0,0,1.42-.63,2.06,2.06,0,0,0,.6-1.44V80.53a2,2,0,0,0-.6-1.42A1.88,1.88,0,0,0,85.16,78.49Z"/><path class="cls-1" d="M76.77,78.49a1.87,1.87,0,0,0-1.36.56,1.94,1.94,0,0,0-.59,1.48v2.25a1.59,1.59,0,0,0,.6,1,2,2,0,0,0,1.38.58,1.9,1.9,0,0,0,1.4-.63,2.06,2.06,0,0,0,.6-1.44V80.53a2,2,0,0,0-.6-1.42A1.92,1.92,0,0,0,76.77,78.49Z"/><path class="cls-2" d="M13,72.88a1,1,0,0,0-.52-.14,1,1,0,0,0-.51.14.4.4,0,0,0-.22.37v5.06H7V73.25a.4.4,0,0,0-.22-.37,1,1,0,0,0-1,0,.41.41,0,0,0-.22.37v11.8a.46.46,0,0,0,.22.39,1,1,0,0,0,1,0A.44.44,0,0,0,7,85.05V79.54h4.76v5.51a.44.44,0,0,0,.22.39,1,1,0,0,0,.51.14,1,1,0,0,0,.52-.14.44.44,0,0,0,.22-.39V73.25A.4.4,0,0,0,13,72.88Z"/><path class="cls-2" d="M18,77.15a4.58,4.58,0,0,0-1.7.31c-.53.2-.8.44-.8.71a.94.94,0,0,0,.15.5.45.45,0,0,0,.4.24,4.48,4.48,0,0,0,.61-.27,3.14,3.14,0,0,1,1.3-.26,1.7,1.7,0,0,1,1.45.65,2.54,2.54,0,0,1,.48,1.54v.37h-.84a6.9,6.9,0,0,0-3.06.54A2,2,0,0,0,15,83.4a2.21,2.21,0,0,0,.66,1.73,2.48,2.48,0,0,0,1.71.59A3.51,3.51,0,0,0,20,84.38v.69a.44.44,0,0,0,.2.36.72.72,0,0,0,.47.15.86.86,0,0,0,.52-.15.47.47,0,0,0,.2-.38V80.56a3.61,3.61,0,0,0-.82-2.43A3.11,3.11,0,0,0,18,77.15Zm1.89,5.61A1.66,1.66,0,0,1,19.24,84a2.17,2.17,0,0,1-1.43.6,1.4,1.4,0,0,1-1-.34,1.32,1.32,0,0,1-.36-1,1.22,1.22,0,0,1,.15-.63A1.27,1.27,0,0,1,17,82.2a2.23,2.23,0,0,1,.65-.23,5.11,5.11,0,0,1,.76-.1c.25,0,.54,0,.88,0h.61Z"/><path class="cls-2" d="M28.62,83.77a2.51,2.51,0,0,0-.63.31,2.6,2.6,0,0,1-1.28.3q-2.16,0-2.16-2.07V80.56A2.07,2.07,0,0,1,25.09,79a2.2,2.2,0,0,1,1.6-.54,2.55,2.55,0,0,1,1.26.29,3.11,3.11,0,0,0,.6.3.54.54,0,0,0,.43-.23.76.76,0,0,0,.19-.49c0-.29-.25-.57-.75-.82a3.93,3.93,0,0,0-1.83-.39A3.41,3.41,0,0,0,24,78.1a3.46,3.46,0,0,0-.89,2.46v1.75A3.46,3.46,0,0,0,24,84.78a3.43,3.43,0,0,0,2.62.94,4.17,4.17,0,0,0,1.9-.4c.51-.27.77-.55.77-.85a.75.75,0,0,0-.18-.47A.58.58,0,0,0,28.62,83.77Z"/><path class="cls-2" d="M34.65,80.42l2.44-2.16a.47.47,0,0,0,.15-.35.61.61,0,0,0-.23-.48.76.76,0,0,0-.5-.21.53.53,0,0,0-.32.12l-4,3.62V72.74a.41.41,0,0,0-.21-.36.9.9,0,0,0-.53-.15.86.86,0,0,0-.52.15.42.42,0,0,0-.2.36V85.05a.45.45,0,0,0,.21.37.8.8,0,0,0,.51.16.85.85,0,0,0,.52-.17.48.48,0,0,0,.22-.36V82.63l1.45-1.3,2.8,4.09a.47.47,0,0,0,.4.23.78.78,0,0,0,.54-.24.67.67,0,0,0,.27-.5.48.48,0,0,0-.09-.26Z"/><path class="cls-2" d="M44.88,78.63a2.2,2.2,0,0,0,1.1-1,3.93,3.93,0,0,0,.39-1.83,2.65,2.65,0,0,0-.95-2.36,4.62,4.62,0,0,0-2.61-.65h-3a.84.84,0,0,0-.47.14.47.47,0,0,0-.2.39v11.8a.44.44,0,0,0,.19.36.73.73,0,0,0,.48.15h3.42a3.54,3.54,0,0,0,2.53-.88,3.61,3.61,0,0,0,.95-2.77v-.32a3.47,3.47,0,0,0-.46-2A2.7,2.7,0,0,0,44.88,78.63ZM40.6,74.08h2.14c1.44,0,2.16.62,2.16,1.88a2.09,2.09,0,0,1-.51,1.56,2.22,2.22,0,0,1-1.6.49H40.6Zm4.62,7.76q0,2.4-2.25,2.4H40.6v-5H43a2.33,2.33,0,0,1,1.67.54,2.36,2.36,0,0,1,.58,1.76Z"/><path class="cls-2" d="M51.66,77.15a3.48,3.48,0,0,0-2.47,1,3.15,3.15,0,0,0-1,2.34v1.84a3.12,3.12,0,0,0,1.08,2.47,4.15,4.15,0,0,0,2.81.94,4.21,4.21,0,0,0,2-.42c.53-.28.8-.56.8-.83a.72.72,0,0,0-.18-.45.54.54,0,0,0-.42-.21.82.82,0,0,0-.42.16,4.44,4.44,0,0,1-.69.34,2.64,2.64,0,0,1-1,.18,2.69,2.69,0,0,1-1.8-.58,1.89,1.89,0,0,1-.7-1.54v-.53h3.85a3.2,3.2,0,0,0,.59,0,1.5,1.5,0,0,0,.47-.17.76.76,0,0,0,.38-.44,2.35,2.35,0,0,0,.12-.83,3,3,0,0,0-1-2.29A3.41,3.41,0,0,0,51.66,77.15Zm1.83,3.57a1.13,1.13,0,0,1-.62.12H49.62v-.63a1.76,1.76,0,0,1,.6-1.36,2,2,0,0,1,1.42-.56,1.89,1.89,0,0,1,1.42.6,1.92,1.92,0,0,1,.58,1.39A.52.52,0,0,1,53.49,80.72Z"/><path class="cls-2" d="M59.16,77.15a4.58,4.58,0,0,0-1.7.31c-.53.2-.8.44-.8.71a.94.94,0,0,0,.15.5.45.45,0,0,0,.4.24,4.48,4.48,0,0,0,.61-.27,3.14,3.14,0,0,1,1.3-.26,1.7,1.7,0,0,1,1.45.65,2.54,2.54,0,0,1,.48,1.54v.37h-.84a6.93,6.93,0,0,0-3.06.54,2,2,0,0,0-1,1.92,2.21,2.21,0,0,0,.66,1.73,2.48,2.48,0,0,0,1.71.59,3.51,3.51,0,0,0,2.65-1.34v.69a.44.44,0,0,0,.2.36.72.72,0,0,0,.47.15.86.86,0,0,0,.52-.15.47.47,0,0,0,.2-.38V80.56a3.61,3.61,0,0,0-.82-2.43A3.11,3.11,0,0,0,59.16,77.15Zm1.89,5.61A1.66,1.66,0,0,1,60.36,84a2.17,2.17,0,0,1-1.43.6,1.4,1.4,0,0,1-1-.34,1.32,1.32,0,0,1-.36-1,1.22,1.22,0,0,1,.15-.63,1.27,1.27,0,0,1,.42-.41A2.23,2.23,0,0,1,58.8,82a5.11,5.11,0,0,1,.76-.1c.25,0,.54,0,.88,0h.61Z"/><path class="cls-2" d="M68.25,77.15a2.69,2.69,0,0,0-1.45.39,2.42,2.42,0,0,0-.9,1v-.73a.45.45,0,0,0-.2-.36.78.78,0,0,0-.47-.15.86.86,0,0,0-.52.14.43.43,0,0,0-.2.37v7.28a.45.45,0,0,0,.21.37.8.8,0,0,0,.51.16.85.85,0,0,0,.51-.17.46.46,0,0,0,.23-.36V80.53a2,2,0,0,1,.58-1.48,1.88,1.88,0,0,1,2.74.07,2,2,0,0,1,.59,1.41v4.52a.44.44,0,0,0,.22.39,1,1,0,0,0,1,0,.44.44,0,0,0,.22-.39V80.52a3.36,3.36,0,0,0-.92-2.38A2.87,2.87,0,0,0,68.25,77.15Z"/><path class="cls-2" d="M77.1,77.15a2.59,2.59,0,0,0-1.42.39,2.66,2.66,0,0,0-.93,1v-.73a.44.44,0,0,0-.2-.37.75.75,0,0,0-.49-.14.82.82,0,0,0-.5.14.43.43,0,0,0-.2.37v11.3a.45.45,0,0,0,.21.37.8.8,0,0,0,.51.16.85.85,0,0,0,.52-.17.48.48,0,0,0,.22-.36V84.33a2.53,2.53,0,0,0,.94,1,2.57,2.57,0,0,0,1.41.4,2.83,2.83,0,0,0,2.16-1,3.44,3.44,0,0,0,.93-2.37V80.52a3.4,3.4,0,0,0-.92-2.38A3,3,0,0,0,77.1,77.15Zm1.7,5.16a2.06,2.06,0,0,1-.6,1.44,1.9,1.9,0,0,1-1.4.63,2,2,0,0,1-1.38-.58,1.59,1.59,0,0,1-.6-1V80.53a1.94,1.94,0,0,1,.59-1.48,1.87,1.87,0,0,1,1.36-.56,1.92,1.92,0,0,1,1.43.62,2,2,0,0,1,.6,1.42Z"/><path class="cls-2" d="M85.16,77.15a3.35,3.35,0,0,0-2.43,1,3.19,3.19,0,0,0-1,2.36v1.79a3.26,3.26,0,0,0,1,2.38,3.36,3.36,0,0,0,4.85,0,3.24,3.24,0,0,0,1-2.37V80.52a3.2,3.2,0,0,0-1-2.37A3.38,3.38,0,0,0,85.16,77.15Zm2,5.16a2.06,2.06,0,0,1-.6,1.44,1.89,1.89,0,0,1-1.42.63,1.84,1.84,0,0,1-1.4-.62,2.05,2.05,0,0,1-.6-1.45V80.53a2,2,0,0,1,.59-1.42,1.85,1.85,0,0,1,1.41-.62,1.88,1.88,0,0,1,1.42.62,2,2,0,0,1,.6,1.42Z"/><path class="cls-2" d="M93.82,84.24h-.55a1.66,1.66,0,0,1-1.13-.3,1.38,1.38,0,0,1-.33-1V78.4H94a.37.37,0,0,0,.31-.17.65.65,0,0,0,.13-.39.71.71,0,0,0-.13-.41.35.35,0,0,0-.31-.17H91.81V73.89a.43.43,0,0,0-.22-.37,1,1,0,0,0-.51-.14,1,1,0,0,0-.5.14.43.43,0,0,0-.22.37v9c0,1.76,1,2.65,2.91,2.65h.55a.58.58,0,0,0,.45-.2.7.7,0,0,0,.18-.48.67.67,0,0,0-.17-.46A.57.57,0,0,0,93.82,84.24Z"/><path class="cls-2" d="M32.65,20.11l-.33.35a2.46,2.46,0,0,0,.81.14,2.57,2.57,0,0,0,2.06-1h0a2.56,2.56,0,1,0-4.53-.89l.25-.27Zm-.29-2.64a1,1,0,0,1,.77-.39.93.93,0,0,1,.57.19,1,1,0,1,1-1.34.2Z"/><path class="cls-2" d="M42.78,11.38l.08,0c-.08-.07-.16-.16-.25-.23a2.57,2.57,0,0,0-1.9-.47,2.54,2.54,0,0,0-1.68,1,2.55,2.55,0,0,0,2,4.08l.39,0a2.52,2.52,0,0,0,1.67-1h0a2.52,2.52,0,0,0,.44-1l-.15,0Zm-.92,2.38a1,1,0,0,1-.63.38,1,1,0,0,1-.91-1.52,1,1,0,0,1,.63-.38h.14a1,1,0,0,1,.57.19A1,1,0,0,1,41.86,13.76Z"/><path class="cls-2" d="M31.5,58.51a2.55,2.55,0,0,0,2.66.23c-.12-.08-.25-.16-.36-.25l1.47-1.94.28.2a2.21,2.21,0,0,0,0-.68,2.55,2.55,0,0,0-2.91-2.15,2.57,2.57,0,0,0-2.15,2.91A2.56,2.56,0,0,0,31.5,58.51Zm.75-2.63a1,1,0,0,1,.63-.38H33a1,1,0,0,1,.57.19,1,1,0,0,1,.2,1.34,1,1,0,0,1-1.34.2,1,1,0,0,1-.38-.63A1,1,0,0,1,32.25,55.88Z"/><path class="cls-2" d="M46.22,27.88l-.62.28a2.49,2.49,0,0,0,1.32.37A2.56,2.56,0,0,0,48.57,24a2.59,2.59,0,0,0-1.87-.6A2.54,2.54,0,0,0,44.37,26c.31-.15.62-.29.94-.42Zm0-2.52a.91.91,0,0,1,.65-.34h.08a1,1,0,0,1,.61.22,1,1,0,1,1-1.34.12Z"/><path class="cls-2" d="M43.45,55a1.21,1.21,0,0,0-.68-1.45,18,18,0,0,1-7-5.48l-1,.72-1.44-2,1.07-.78A17.92,17.92,0,0,1,62.19,24l.45.42a9.85,9.85,0,0,1,1.78.08,7.8,7.8,0,0,1,2.12.66,20,20,0,0,0-2.74-3,20.36,20.36,0,0,0-34.16,15A20,20,0,0,0,30,40.74l1-.33.76,2.32-1.21.39A20.36,20.36,0,0,0,40.82,55.35L39.7,59.22c.75.35,1.5.66,2.27.93Z"/><path class="cls-2" d="M71.27,38.12a25.58,25.58,0,0,1-9.78,16.8C59.23,56.44,54,58.58,50.7,56.16A8,8,0,0,1,47.43,49a10,10,0,0,1,4-7.14c4.78-3.76,4.47-6.48,4.48-7.59,0-2.18,1.44-9.15,7.65-8.81-.36-.41-.67-.72-.91-.95a6.93,6.93,0,0,0-4.23,1.68C55.61,28.55,55,32.78,55,34.21v.22c0,1.1,0,3.39-4.13,6.65a10.91,10.91,0,0,0-4.33,7.8,8.85,8.85,0,0,0,3.64,8,7,7,0,0,0,4.23,1.26A14.72,14.72,0,0,0,62,55.69,26.67,26.67,0,0,0,72.19,38.22c.84-7.42-2.42-11.49-5.65-13a20.64,20.64,0,0,1,1.29,1.92C70.07,29,71.91,32.43,71.27,38.12Z"/><path class="cls-2" d="M62.64,24.46c.24.23.55.54.91.95.24,0,.48,0,.74.05a7.37,7.37,0,0,1,3.54,1.66,20.64,20.64,0,0,0-1.29-1.92,7.8,7.8,0,0,0-2.12-.66A9.85,9.85,0,0,0,62.64,24.46Z"/><path class="cls-2" d="M55.9,34.22c0,1.11.3,3.83-4.48,7.59a10,10,0,0,0-4,7.14,8,8,0,0,0,3.27,7.21c3.3,2.42,8.53.28,10.79-1.24a25.58,25.58,0,0,0,9.78-16.8c.64-5.69-1.2-9.15-3.44-11a17.91,17.91,0,0,1,1.66,3.67A13.69,13.69,0,0,1,70.35,38,24.66,24.66,0,0,1,61,54.15c-2.3,1.55-7,3.27-9.72,1.26a7,7,0,0,1-2.9-6.32V49A9,9,0,0,1,52,42.54c4.87-3.83,4.85-6.84,4.84-8.13v-.19c0-1.11.53-4.73,2.79-6.67a5.16,5.16,0,0,1,3.49-1.24,7.61,7.61,0,0,1,1,.07l.23.05c-.29-.38-.58-.72-.84-1C57.34,25.07,55.91,32,55.9,34.22Z"/><path class="cls-2" d="M69.49,30.79a17.91,17.91,0,0,0-1.66-3.67,7.37,7.37,0,0,0-3.54-1.66c-.26,0-.5,0-.74-.05.26.3.55.64.84,1A7.34,7.34,0,0,1,69.49,30.79Z"/><path class="cls-2" d="M26.14,42a24.32,24.32,0,0,1,6.18-21.53,2.5,2.5,0,0,1-.71-.36,2.53,2.53,0,0,1-.95-1.43,26.73,26.73,0,0,0-6.59,25.19,1.21,1.21,0,0,0,1.55.86l4.92-1.6A18.75,18.75,0,0,1,30,40.74Z"/><path class="cls-2" d="M31.61,20.1a2.5,2.5,0,0,0,.71.36l.33-.35L30.91,18.4l-.25.27A2.53,2.53,0,0,0,31.61,20.1Z"/><path class="cls-2" d="M31,40.41l-1,.33a18.75,18.75,0,0,0,.57,2.38l1.21-.39Z"/><path class="cls-2" d="M35.08,58a2.5,2.5,0,0,1-.92.77A26.5,26.5,0,0,0,50,64,26.78,26.78,0,1,0,50,10.4a27.25,27.25,0,0,0-7.14,1,2.54,2.54,0,0,1,.73,2.34A24.33,24.33,0,1,1,42,60.15l-.31,1.09-2.34-.67.38-1.35a25.09,25.09,0,0,1-4.15-2.47A2.48,2.48,0,0,1,35.08,58Z"/><path class="cls-2" d="M42.86,11.36l-.08,0,.66,2.35.15,0A2.54,2.54,0,0,0,42.86,11.36Z"/><path class="cls-2" d="M33.8,58.49c.11.09.24.17.36.25a2.5,2.5,0,0,0,.92-.77h0a2.48,2.48,0,0,0,.47-1.22l-.28-.2Z"/><path class="cls-2" d="M41.66,61.24,42,60.15c-.77-.27-1.52-.58-2.27-.93l-.38,1.35Z"/><path class="cls-2" d="M41.1,44.24a1.23,1.23,0,0,0,.32-1.63A10.09,10.09,0,0,1,45.6,28.16a1.94,1.94,0,0,1-.33-.23,2.55,2.55,0,0,1-.9-1.89,12.53,12.53,0,0,0-5.58,16.87l-4.34,3.16a18.82,18.82,0,0,0,1.35,2Z"/><path class="cls-2" d="M45.27,27.93a1.94,1.94,0,0,0,.33.23l.62-.28-.91-2.26c-.32.13-.63.27-.94.42A2.55,2.55,0,0,0,45.27,27.93Z"/><path class="cls-2" d="M34.82,48.82l1-.72a18.82,18.82,0,0,1-1.35-2l-1.07.78Z"/><path class="cls-2" d="M64.22,25.75c3.14.45,7.9,3.95,6.93,12.56A25.37,25.37,0,0,1,61.45,55c-2.24,1.51-7.44,3.64-10.71,1.23a7.91,7.91,0,0,1-3.24-7.15,9.89,9.89,0,0,1,4-7.09c4.75-3.72,4.44-6.43,4.45-7.53C55.91,32.2,57.42,24.78,64.22,25.75Z"/></svg>