<?xml version="1.0" standalone="no"?>
<!DOCTYPE svg PUBLIC "-//W3C//DTD SVG 20010904//EN"
 "http://www.w3.org/TR/2001/REC-SVG-20010904/DTD/svg10.dtd">
<svg version="1.0" xmlns="http://www.w3.org/2000/svg"
 width="282.000000pt" height="282.000000pt" viewBox="0 0 282.000000 282.000000"
 preserveAspectRatio="xMidYMid meet">
<metadata>
Created by potrace 1.11, written by Peter Selinger 2001-2013
</metadata>
<g transform="translate(0.000000,282.000000) scale(0.100000,-0.100000)"
fill="#000000" stroke="none">
<path d="M1290 2577 c-3 -3 -25 -7 -50 -11 -54 -6 -100 -15 -117 -21 -6 -2
-30 3 -52 12 -108 42 -198 -55 -145 -158 38 -74 158 -69 198 9 11 22 27 31 68
41 77 20 317 23 406 5 447 -86 783 -429 860 -879 4 -22 7 -103 6 -180 0 -132
-20 -261 -52 -340 -130 -320 -352 -538 -658 -648 -39 -14 -98 -30 -130 -36
-33 -6 -72 -13 -89 -16 -41 -7 -201 -7 -250 0 -33 5 -113 20 -160 31 -35 8
-64 25 -60 36 28 82 64 225 60 239 -3 10 -36 34 -72 54 -107 59 -253 182 -253
213 0 5 54 48 119 96 66 49 122 95 124 105 2 9 -7 36 -19 61 -107 219 -42 471
152 586 34 20 46 22 73 14 68 -19 133 31 137 106 2 40 -1 49 -33 81 -34 33
-39 35 -86 30 -56 -5 -93 -36 -103 -86 -4 -17 -19 -34 -42 -48 -103 -59 -198
-179 -235 -298 -35 -113 -30 -275 13 -371 l19 -44 -32 -22 c-18 -12 -36 -26
-42 -30 -64 -51 -107 -78 -116 -72 -20 12 -75 156 -87 229 -4 22 -7 94 -6 160
0 96 5 135 23 195 80 260 256 443 514 532 86 30 101 32 232 33 158 0 228 -16
360 -82 69 -35 185 -117 185 -131 0 -4 -11 -9 -25 -10 -50 -4 -125 -45 -169
-92 -78 -84 -120 -192 -130 -337 -9 -120 -34 -159 -222 -333 -150 -140 -191
-352 -102 -522 60 -113 160 -179 280 -184 65 -2 194 20 213 37 5 5 16 9 24 9
31 0 155 84 224 153 386 382 459 979 147 1205 -19 14 -70 60 -112 103 -193
196 -386 286 -628 295 -268 10 -493 -79 -673 -263 -110 -113 -177 -227 -224
-380 -24 -79 -27 -105 -27 -244 l-1 -156 -77 -26 -77 -25 -9 42 c-14 66 -12
274 4 356 33 173 97 316 203 454 25 33 49 64 52 69 4 5 27 10 52 11 29 1 54 9
68 21 24 23 45 63 43 85 -1 8 -2 25 -3 36 -1 30 -47 72 -86 80 -68 12 -135
-43 -135 -111 0 -17 -16 -46 -43 -78 -138 -164 -231 -364 -264 -572 -13 -84
-9 -334 7 -405 8 -36 14 -68 13 -71 -4 -11 34 -40 53 -41 11 0 67 15 126 34
l107 36 12 -37 c53 -164 200 -349 355 -447 41 -26 74 -54 74 -62 0 -8 -9 -46
-20 -83 l-21 -69 -42 21 c-23 12 -63 36 -89 53 -39 25 -48 36 -48 59 0 45 -57
97 -107 97 -83 0 -140 -81 -108 -156 19 -45 56 -67 118 -69 41 -1 63 -8 107
-37 102 -66 263 -133 365 -153 149 -28 323 -31 457 -8 289 49 553 212 734 453
101 134 171 289 215 480 14 60 18 317 7 390 -28 175 -83 322 -171 458 -59 91
-76 112 -172 207 -143 143 -326 247 -530 300 -79 21 -131 27 -250 31 -83 3
-153 3 -155 1z m-230 -112 c0 -43 -43 -62 -70 -30 -15 18 -4 52 18 58 23 5 52
-10 52 -28z m-352 -216 c5 -29 -24 -52 -48 -39 -26 14 -33 41 -14 61 21 23 58
11 62 -22z m590 -318 c22 -13 11 -65 -14 -69 -28 -4 -55 23 -47 46 11 30 36
39 61 23z m-596 -1345 c21 -30 -19 -69 -49 -50 -38 24 -20 81 21 68 12 -4 24
-12 28 -18z"/>
</g>
</svg>
